<mxfile host="app.diagrams.net" agent="Mozilla/5.0 (Windows NT 10.0; Win64; x64) AppleWebKit/537.36 (KHTML, like Gecko) Chrome/138.0.0.0 Safari/537.36" version="28.0.6">
  <diagram name="PÃ¡gina-1" id="PuR6PXavX1iiZgIphFz7">
    <mxGraphModel grid="1" page="1" gridSize="10" guides="1" tooltips="1" connect="1" arrows="1" fold="1" pageScale="1" pageWidth="827" pageHeight="1169" math="0" shadow="0">
      <root>
        <mxCell id="0" />
        <mxCell id="1" parent="0" />
        <mxCell id="MXzzhW-mEJsIYcg_yx4l-1" value="" style="shape=partialRectangle;whiteSpace=wrap;html=1;top=0;bottom=0;fillColor=none;rotation=90;" vertex="1" parent="1">
          <mxGeometry x="1446.87" y="310" width="65" height="120" as="geometry" />
        </mxCell>
        <mxCell id="MXzzhW-mEJsIYcg_yx4l-2" value="" style="endArrow=none;html=1;rounded=0;exitX=1;exitY=0;exitDx=0;exitDy=0;" edge="1" parent="1" source="MXzzhW-mEJsIYcg_yx4l-1">
          <mxGeometry width="50" height="50" relative="1" as="geometry">
            <mxPoint x="1583.12" y="376.25" as="sourcePoint" />
            <mxPoint x="1573.12" y="366.25" as="targetPoint" />
          </mxGeometry>
        </mxCell>
        <mxCell id="MXzzhW-mEJsIYcg_yx4l-3" value="" style="endArrow=none;html=1;rounded=0;exitX=0;exitY=0;exitDx=0;exitDy=0;" edge="1" parent="1" source="MXzzhW-mEJsIYcg_yx4l-1">
          <mxGeometry width="50" height="50" relative="1" as="geometry">
            <mxPoint x="1583.12" y="328.25" as="sourcePoint" />
            <mxPoint x="1573.12" y="366.25" as="targetPoint" />
          </mxGeometry>
        </mxCell>
        <mxCell id="MXzzhW-mEJsIYcg_yx4l-4" value="" style="endArrow=none;html=1;rounded=0;entryX=1;entryY=1;entryDx=0;entryDy=0;" edge="1" parent="1" target="MXzzhW-mEJsIYcg_yx4l-1">
          <mxGeometry width="50" height="50" relative="1" as="geometry">
            <mxPoint x="1386.87" y="370" as="sourcePoint" />
            <mxPoint x="1410.12" y="398.25" as="targetPoint" />
          </mxGeometry>
        </mxCell>
        <mxCell id="MXzzhW-mEJsIYcg_yx4l-5" value="" style="endArrow=none;html=1;rounded=0;entryX=0;entryY=1;entryDx=0;entryDy=0;" edge="1" parent="1" target="MXzzhW-mEJsIYcg_yx4l-1">
          <mxGeometry width="50" height="50" relative="1" as="geometry">
            <mxPoint x="1386.87" y="370" as="sourcePoint" />
            <mxPoint x="1410.12" y="340" as="targetPoint" />
          </mxGeometry>
        </mxCell>
        <mxCell id="MXzzhW-mEJsIYcg_yx4l-7" value="" style="shape=partialRectangle;whiteSpace=wrap;html=1;top=0;bottom=0;fillColor=none;rotation=90;" vertex="1" parent="1">
          <mxGeometry x="1656.87" y="310" width="65" height="120" as="geometry" />
        </mxCell>
        <mxCell id="MXzzhW-mEJsIYcg_yx4l-8" value="" style="endArrow=none;html=1;rounded=0;exitX=1;exitY=0;exitDx=0;exitDy=0;" edge="1" parent="1" source="MXzzhW-mEJsIYcg_yx4l-7">
          <mxGeometry width="50" height="50" relative="1" as="geometry">
            <mxPoint x="1793.12" y="376.25" as="sourcePoint" />
            <mxPoint x="1783.12" y="366.25" as="targetPoint" />
          </mxGeometry>
        </mxCell>
        <mxCell id="MXzzhW-mEJsIYcg_yx4l-9" value="" style="endArrow=none;html=1;rounded=0;exitX=0;exitY=0;exitDx=0;exitDy=0;" edge="1" parent="1" source="MXzzhW-mEJsIYcg_yx4l-7">
          <mxGeometry width="50" height="50" relative="1" as="geometry">
            <mxPoint x="1793.12" y="328.25" as="sourcePoint" />
            <mxPoint x="1783.12" y="366.25" as="targetPoint" />
          </mxGeometry>
        </mxCell>
        <mxCell id="MXzzhW-mEJsIYcg_yx4l-10" value="" style="endArrow=none;html=1;rounded=0;entryX=1;entryY=1;entryDx=0;entryDy=0;" edge="1" parent="1" target="MXzzhW-mEJsIYcg_yx4l-7">
          <mxGeometry width="50" height="50" relative="1" as="geometry">
            <mxPoint x="1596.87" y="370" as="sourcePoint" />
            <mxPoint x="1620.12" y="398.25" as="targetPoint" />
          </mxGeometry>
        </mxCell>
        <mxCell id="MXzzhW-mEJsIYcg_yx4l-11" value="" style="endArrow=none;html=1;rounded=0;entryX=0;entryY=1;entryDx=0;entryDy=0;" edge="1" parent="1" target="MXzzhW-mEJsIYcg_yx4l-7">
          <mxGeometry width="50" height="50" relative="1" as="geometry">
            <mxPoint x="1596.87" y="370" as="sourcePoint" />
            <mxPoint x="1620.12" y="340" as="targetPoint" />
          </mxGeometry>
        </mxCell>
        <mxCell id="MXzzhW-mEJsIYcg_yx4l-12" value="&lt;font style=&quot;vertical-align: inherit;&quot;&gt;&lt;font style=&quot;vertical-align: inherit;&quot;&gt;Idle&lt;/font&gt;&lt;/font&gt;" style="text;html=1;align=center;verticalAlign=middle;whiteSpace=wrap;rounded=0;" vertex="1" parent="1">
          <mxGeometry x="1316.87" y="355" width="60" height="30" as="geometry" />
        </mxCell>
        <mxCell id="MXzzhW-mEJsIYcg_yx4l-14" value="" style="shape=partialRectangle;whiteSpace=wrap;html=1;top=0;bottom=0;fillColor=none;rotation=90;" vertex="1" parent="1">
          <mxGeometry x="1871.25" y="307.5" width="65" height="122.5" as="geometry" />
        </mxCell>
        <mxCell id="MXzzhW-mEJsIYcg_yx4l-15" value="" style="endArrow=none;html=1;rounded=0;exitX=1;exitY=0;exitDx=0;exitDy=0;" edge="1" parent="1" source="MXzzhW-mEJsIYcg_yx4l-14">
          <mxGeometry width="50" height="50" relative="1" as="geometry">
            <mxPoint x="2006.25" y="375" as="sourcePoint" />
            <mxPoint x="1996.25" y="365" as="targetPoint" />
          </mxGeometry>
        </mxCell>
        <mxCell id="MXzzhW-mEJsIYcg_yx4l-16" value="" style="endArrow=none;html=1;rounded=0;exitX=0;exitY=0;exitDx=0;exitDy=0;" edge="1" parent="1" source="MXzzhW-mEJsIYcg_yx4l-14">
          <mxGeometry width="50" height="50" relative="1" as="geometry">
            <mxPoint x="2006.25" y="327" as="sourcePoint" />
            <mxPoint x="1996.25" y="365" as="targetPoint" />
          </mxGeometry>
        </mxCell>
        <mxCell id="MXzzhW-mEJsIYcg_yx4l-17" value="" style="endArrow=none;html=1;rounded=0;entryX=1;entryY=1;entryDx=0;entryDy=0;" edge="1" parent="1" target="MXzzhW-mEJsIYcg_yx4l-14">
          <mxGeometry width="50" height="50" relative="1" as="geometry">
            <mxPoint x="1810" y="368.75" as="sourcePoint" />
            <mxPoint x="1833.25" y="397" as="targetPoint" />
          </mxGeometry>
        </mxCell>
        <mxCell id="MXzzhW-mEJsIYcg_yx4l-18" value="" style="endArrow=none;html=1;rounded=0;entryX=0;entryY=1;entryDx=0;entryDy=0;" edge="1" parent="1" target="MXzzhW-mEJsIYcg_yx4l-14">
          <mxGeometry width="50" height="50" relative="1" as="geometry">
            <mxPoint x="1810" y="368.75" as="sourcePoint" />
            <mxPoint x="1833.25" y="338.75" as="targetPoint" />
          </mxGeometry>
        </mxCell>
        <mxCell id="MXzzhW-mEJsIYcg_yx4l-19" value="&lt;font style=&quot;vertical-align: inherit;&quot;&gt;&lt;font style=&quot;vertical-align: inherit;&quot;&gt;Idle&lt;/font&gt;&lt;/font&gt;" style="text;html=1;align=center;verticalAlign=middle;whiteSpace=wrap;rounded=0;" vertex="1" parent="1">
          <mxGeometry x="1310" y="463.76" width="60" height="30" as="geometry" />
        </mxCell>
        <mxCell id="MXzzhW-mEJsIYcg_yx4l-20" value="" style="endArrow=classic;html=1;rounded=0;" edge="1" parent="1">
          <mxGeometry width="50" height="50" relative="1" as="geometry">
            <mxPoint x="1566.87" y="369.40999999999997" as="sourcePoint" />
            <mxPoint x="1596.87" y="369.82000000000005" as="targetPoint" />
          </mxGeometry>
        </mxCell>
        <mxCell id="MXzzhW-mEJsIYcg_yx4l-21" value="" style="endArrow=classic;html=1;rounded=0;" edge="1" parent="1">
          <mxGeometry width="50" height="50" relative="1" as="geometry">
            <mxPoint x="1780" y="368.15999999999997" as="sourcePoint" />
            <mxPoint x="1810" y="368.57000000000005" as="targetPoint" />
          </mxGeometry>
        </mxCell>
        <mxCell id="MXzzhW-mEJsIYcg_yx4l-22" value="" style="endArrow=classic;html=1;rounded=0;" edge="1" parent="1">
          <mxGeometry width="50" height="50" relative="1" as="geometry">
            <mxPoint x="1356.87" y="369.40999999999997" as="sourcePoint" />
            <mxPoint x="1386.87" y="369.82000000000005" as="targetPoint" />
          </mxGeometry>
        </mxCell>
        <mxCell id="MXzzhW-mEJsIYcg_yx4l-23" value="&lt;font style=&quot;vertical-align: inherit;&quot;&gt;&lt;font style=&quot;vertical-align: inherit;&quot;&gt;Evento&lt;/font&gt;&lt;/font&gt;" style="shape=umlFrame;whiteSpace=wrap;html=1;pointerEvents=0;" vertex="1" parent="1">
          <mxGeometry x="1120" y="260" width="910" height="580" as="geometry" />
        </mxCell>
        <mxCell id="MXzzhW-mEJsIYcg_yx4l-24" value="&lt;span style=&quot;text-align: left;&quot;&gt;&lt;font style=&quot;vertical-align: inherit;&quot;&gt;&lt;font style=&quot;vertical-align: inherit;&quot;&gt;Solicitar Cita&lt;/font&gt;&lt;/font&gt;&lt;/span&gt;" style="text;html=1;align=center;verticalAlign=middle;whiteSpace=wrap;rounded=0;" vertex="1" parent="1">
          <mxGeometry x="1449.37" y="355" width="60" height="30" as="geometry" />
        </mxCell>
        <mxCell id="MXzzhW-mEJsIYcg_yx4l-25" value="&lt;div style=&quot;text-align: left;&quot;&gt;&lt;span style=&quot;background-color: transparent; color: light-dark(rgb(0, 0, 0), rgb(255, 255, 255));&quot;&gt;Reunirse con Administrador&lt;/span&gt;&lt;/div&gt;" style="text;html=1;align=center;verticalAlign=middle;whiteSpace=wrap;rounded=0;" vertex="1" parent="1">
          <mxGeometry x="1650.31" y="355" width="78.13" height="30" as="geometry" />
        </mxCell>
        <mxCell id="MXzzhW-mEJsIYcg_yx4l-26" value="&lt;div style=&quot;text-align: left;&quot;&gt;&lt;span style=&quot;background-color: transparent; color: light-dark(rgb(0, 0, 0), rgb(255, 255, 255));&quot;&gt;(Opcional)&lt;/span&gt;&lt;/div&gt;&lt;div style=&quot;text-align: left;&quot;&gt;&lt;span style=&quot;background-color: transparent; color: light-dark(rgb(0, 0, 0), rgb(255, 255, 255));&quot;&gt;Solicitar Cancelacion&lt;/span&gt;&lt;/div&gt;" style="text;html=1;align=center;verticalAlign=middle;whiteSpace=wrap;rounded=0;" vertex="1" parent="1">
          <mxGeometry x="1872.5" y="353.75" width="60" height="30" as="geometry" />
        </mxCell>
        <mxCell id="MXzzhW-mEJsIYcg_yx4l-27" value="{&gt;1h}" style="text;whiteSpace=wrap;" vertex="1" parent="1">
          <mxGeometry x="1436.88" y="415.01" width="80" height="40" as="geometry" />
        </mxCell>
        <mxCell id="MXzzhW-mEJsIYcg_yx4l-28" value="{&lt;1h}" style="text;whiteSpace=wrap;" vertex="1" parent="1">
          <mxGeometry x="1460" y="310" width="80" height="40" as="geometry" />
        </mxCell>
        <mxCell id="MXzzhW-mEJsIYcg_yx4l-29" value="&lt;span style=&quot;color: rgb(0, 0, 0); font-family: Helvetica; font-size: 12px; font-style: normal; font-variant-ligatures: normal; font-variant-caps: normal; font-weight: 400; letter-spacing: normal; orphans: 2; text-align: left; text-indent: 0px; text-transform: none; widows: 2; word-spacing: 0px; -webkit-text-stroke-width: 0px; white-space: normal; background-color: rgb(236, 236, 236); text-decoration-thickness: initial; text-decoration-style: initial; text-decoration-color: initial; float: none; display: inline !important;&quot;&gt;&lt;font style=&quot;vertical-align: inherit;&quot;&gt;&lt;font style=&quot;vertical-align: inherit;&quot;&gt;{&amp;gt;1h}&lt;/font&gt;&lt;/font&gt;&lt;/span&gt;" style="text;whiteSpace=wrap;html=1;" vertex="1" parent="1">
          <mxGeometry x="1670" y="310" width="30.94" height="40" as="geometry" />
        </mxCell>
        <mxCell id="MXzzhW-mEJsIYcg_yx4l-30" value="&lt;font style=&quot;vertical-align: inherit;&quot;&gt;&lt;font style=&quot;vertical-align: inherit;&quot;&gt;Cliente&lt;/font&gt;&lt;/font&gt;" style="text;html=1;align=center;verticalAlign=middle;whiteSpace=wrap;rounded=0;" vertex="1" parent="1">
          <mxGeometry x="1230" y="353.75" width="60" height="30" as="geometry" />
        </mxCell>
        <mxCell id="MXzzhW-mEJsIYcg_yx4l-31" value="" style="shape=partialRectangle;whiteSpace=wrap;html=1;top=0;bottom=0;fillColor=none;rotation=90;" vertex="1" parent="1">
          <mxGeometry x="1436.88" y="418.76" width="65" height="120" as="geometry" />
        </mxCell>
        <mxCell id="MXzzhW-mEJsIYcg_yx4l-32" value="" style="endArrow=none;html=1;rounded=0;exitX=1;exitY=0;exitDx=0;exitDy=0;" edge="1" parent="1" source="MXzzhW-mEJsIYcg_yx4l-31">
          <mxGeometry width="50" height="50" relative="1" as="geometry">
            <mxPoint x="1573.13" y="485.01" as="sourcePoint" />
            <mxPoint x="1563.13" y="475.01" as="targetPoint" />
          </mxGeometry>
        </mxCell>
        <mxCell id="MXzzhW-mEJsIYcg_yx4l-33" value="" style="endArrow=none;html=1;rounded=0;exitX=0;exitY=0;exitDx=0;exitDy=0;" edge="1" parent="1" source="MXzzhW-mEJsIYcg_yx4l-31">
          <mxGeometry width="50" height="50" relative="1" as="geometry">
            <mxPoint x="1573.13" y="437.01" as="sourcePoint" />
            <mxPoint x="1563.13" y="475.01" as="targetPoint" />
          </mxGeometry>
        </mxCell>
        <mxCell id="MXzzhW-mEJsIYcg_yx4l-34" value="" style="endArrow=none;html=1;rounded=0;entryX=1;entryY=1;entryDx=0;entryDy=0;" edge="1" parent="1" target="MXzzhW-mEJsIYcg_yx4l-31">
          <mxGeometry width="50" height="50" relative="1" as="geometry">
            <mxPoint x="1376.88" y="478.76" as="sourcePoint" />
            <mxPoint x="1400.13" y="507.01" as="targetPoint" />
          </mxGeometry>
        </mxCell>
        <mxCell id="MXzzhW-mEJsIYcg_yx4l-35" value="" style="endArrow=none;html=1;rounded=0;entryX=0;entryY=1;entryDx=0;entryDy=0;" edge="1" parent="1" target="MXzzhW-mEJsIYcg_yx4l-31">
          <mxGeometry width="50" height="50" relative="1" as="geometry">
            <mxPoint x="1376.88" y="478.76" as="sourcePoint" />
            <mxPoint x="1400.13" y="448.76" as="targetPoint" />
          </mxGeometry>
        </mxCell>
        <mxCell id="MXzzhW-mEJsIYcg_yx4l-36" value="&lt;div style=&quot;&quot;&gt;&lt;span style=&quot;background-color: transparent; color: light-dark(rgb(0, 0, 0), rgb(255, 255, 255));&quot;&gt;&lt;font style=&quot;vertical-align: inherit;&quot;&gt;&lt;font style=&quot;vertical-align: inherit;&quot;&gt;&lt;font style=&quot;vertical-align: inherit;&quot;&gt;&lt;font style=&quot;vertical-align: inherit;&quot;&gt;Reunirse con Cliente&lt;/font&gt;&lt;/font&gt;&lt;/font&gt;&lt;/font&gt;&lt;/span&gt;&lt;/div&gt;" style="text;html=1;align=center;verticalAlign=middle;whiteSpace=wrap;rounded=0;" vertex="1" parent="1">
          <mxGeometry x="1416.88" y="463.76" width="85" height="30" as="geometry" />
        </mxCell>
        <mxCell id="MXzzhW-mEJsIYcg_yx4l-37" value="" style="endArrow=classic;html=1;rounded=0;" edge="1" parent="1">
          <mxGeometry width="50" height="50" relative="1" as="geometry">
            <mxPoint x="1350" y="476.28999999999996" as="sourcePoint" />
            <mxPoint x="1380" y="476.70000000000005" as="targetPoint" />
          </mxGeometry>
        </mxCell>
        <mxCell id="MXzzhW-mEJsIYcg_yx4l-38" value="&lt;font style=&quot;vertical-align: inherit;&quot;&gt;&lt;font style=&quot;vertical-align: inherit;&quot;&gt;Administrador&lt;/font&gt;&lt;/font&gt;" style="text;html=1;align=center;verticalAlign=middle;whiteSpace=wrap;rounded=0;" vertex="1" parent="1">
          <mxGeometry x="1210" y="461.88" width="100" height="30" as="geometry" />
        </mxCell>
        <mxCell id="MXzzhW-mEJsIYcg_yx4l-39" value="" style="shape=partialRectangle;whiteSpace=wrap;html=1;top=0;bottom=0;fillColor=none;rotation=90;" vertex="1" parent="1">
          <mxGeometry x="1446.87" y="650" width="65" height="120" as="geometry" />
        </mxCell>
        <mxCell id="MXzzhW-mEJsIYcg_yx4l-40" value="" style="endArrow=none;html=1;rounded=0;exitX=1;exitY=0;exitDx=0;exitDy=0;" edge="1" parent="1" source="MXzzhW-mEJsIYcg_yx4l-39">
          <mxGeometry width="50" height="50" relative="1" as="geometry">
            <mxPoint x="1583.12" y="716.25" as="sourcePoint" />
            <mxPoint x="1573.12" y="706.25" as="targetPoint" />
          </mxGeometry>
        </mxCell>
        <mxCell id="MXzzhW-mEJsIYcg_yx4l-41" value="" style="endArrow=none;html=1;rounded=0;exitX=0;exitY=0;exitDx=0;exitDy=0;" edge="1" parent="1" source="MXzzhW-mEJsIYcg_yx4l-39">
          <mxGeometry width="50" height="50" relative="1" as="geometry">
            <mxPoint x="1583.12" y="668.25" as="sourcePoint" />
            <mxPoint x="1573.12" y="706.25" as="targetPoint" />
          </mxGeometry>
        </mxCell>
        <mxCell id="MXzzhW-mEJsIYcg_yx4l-42" value="" style="endArrow=none;html=1;rounded=0;entryX=1;entryY=1;entryDx=0;entryDy=0;" edge="1" parent="1" target="MXzzhW-mEJsIYcg_yx4l-39">
          <mxGeometry width="50" height="50" relative="1" as="geometry">
            <mxPoint x="1386.87" y="710" as="sourcePoint" />
            <mxPoint x="1410.12" y="738.25" as="targetPoint" />
          </mxGeometry>
        </mxCell>
        <mxCell id="MXzzhW-mEJsIYcg_yx4l-43" value="" style="endArrow=none;html=1;rounded=0;entryX=0;entryY=1;entryDx=0;entryDy=0;" edge="1" parent="1" target="MXzzhW-mEJsIYcg_yx4l-39">
          <mxGeometry width="50" height="50" relative="1" as="geometry">
            <mxPoint x="1386.87" y="710" as="sourcePoint" />
            <mxPoint x="1410.12" y="680" as="targetPoint" />
          </mxGeometry>
        </mxCell>
        <mxCell id="MXzzhW-mEJsIYcg_yx4l-44" value="" style="shape=partialRectangle;whiteSpace=wrap;html=1;top=0;bottom=0;fillColor=none;rotation=90;" vertex="1" parent="1">
          <mxGeometry x="1656.87" y="650" width="65" height="120" as="geometry" />
        </mxCell>
        <mxCell id="MXzzhW-mEJsIYcg_yx4l-45" value="" style="endArrow=none;html=1;rounded=0;exitX=1;exitY=0;exitDx=0;exitDy=0;" edge="1" parent="1" source="MXzzhW-mEJsIYcg_yx4l-44">
          <mxGeometry width="50" height="50" relative="1" as="geometry">
            <mxPoint x="1793.12" y="716.25" as="sourcePoint" />
            <mxPoint x="1783.12" y="706.25" as="targetPoint" />
          </mxGeometry>
        </mxCell>
        <mxCell id="MXzzhW-mEJsIYcg_yx4l-46" value="" style="endArrow=none;html=1;rounded=0;exitX=0;exitY=0;exitDx=0;exitDy=0;" edge="1" parent="1" source="MXzzhW-mEJsIYcg_yx4l-44">
          <mxGeometry width="50" height="50" relative="1" as="geometry">
            <mxPoint x="1793.12" y="668.25" as="sourcePoint" />
            <mxPoint x="1783.12" y="706.25" as="targetPoint" />
          </mxGeometry>
        </mxCell>
        <mxCell id="MXzzhW-mEJsIYcg_yx4l-47" value="" style="endArrow=none;html=1;rounded=0;entryX=1;entryY=1;entryDx=0;entryDy=0;" edge="1" parent="1" target="MXzzhW-mEJsIYcg_yx4l-44">
          <mxGeometry width="50" height="50" relative="1" as="geometry">
            <mxPoint x="1596.87" y="710" as="sourcePoint" />
            <mxPoint x="1620.12" y="738.25" as="targetPoint" />
          </mxGeometry>
        </mxCell>
        <mxCell id="MXzzhW-mEJsIYcg_yx4l-48" value="" style="endArrow=none;html=1;rounded=0;entryX=0;entryY=1;entryDx=0;entryDy=0;" edge="1" parent="1" target="MXzzhW-mEJsIYcg_yx4l-44">
          <mxGeometry width="50" height="50" relative="1" as="geometry">
            <mxPoint x="1596.87" y="710" as="sourcePoint" />
            <mxPoint x="1620.12" y="680" as="targetPoint" />
          </mxGeometry>
        </mxCell>
        <mxCell id="MXzzhW-mEJsIYcg_yx4l-49" value="&lt;font style=&quot;vertical-align: inherit;&quot;&gt;&lt;font style=&quot;vertical-align: inherit;&quot;&gt;Idle&lt;/font&gt;&lt;/font&gt;" style="text;html=1;align=center;verticalAlign=middle;whiteSpace=wrap;rounded=0;" vertex="1" parent="1">
          <mxGeometry x="1316.87" y="695" width="60" height="30" as="geometry" />
        </mxCell>
        <mxCell id="MXzzhW-mEJsIYcg_yx4l-50" value="" style="endArrow=classic;html=1;rounded=0;" edge="1" parent="1">
          <mxGeometry width="50" height="50" relative="1" as="geometry">
            <mxPoint x="1566.87" y="709.41" as="sourcePoint" />
            <mxPoint x="1596.87" y="709.82" as="targetPoint" />
          </mxGeometry>
        </mxCell>
        <mxCell id="MXzzhW-mEJsIYcg_yx4l-51" value="" style="endArrow=classic;html=1;rounded=0;" edge="1" parent="1">
          <mxGeometry width="50" height="50" relative="1" as="geometry">
            <mxPoint x="1356.87" y="709.41" as="sourcePoint" />
            <mxPoint x="1386.87" y="709.82" as="targetPoint" />
          </mxGeometry>
        </mxCell>
        <mxCell id="MXzzhW-mEJsIYcg_yx4l-107" style="edgeStyle=orthogonalEdgeStyle;rounded=0;orthogonalLoop=1;jettySize=auto;html=1;entryX=0;entryY=0.5;entryDx=0;entryDy=0;" edge="1" parent="1" source="MXzzhW-mEJsIYcg_yx4l-52" target="MXzzhW-mEJsIYcg_yx4l-38">
          <mxGeometry relative="1" as="geometry">
            <Array as="points">
              <mxPoint x="1479" y="780" />
              <mxPoint x="1190" y="780" />
              <mxPoint x="1190" y="477" />
            </Array>
          </mxGeometry>
        </mxCell>
        <mxCell id="MXzzhW-mEJsIYcg_yx4l-108" style="edgeStyle=orthogonalEdgeStyle;rounded=0;orthogonalLoop=1;jettySize=auto;html=1;entryX=0;entryY=0.5;entryDx=0;entryDy=0;" edge="1" parent="1" source="MXzzhW-mEJsIYcg_yx4l-52" target="MXzzhW-mEJsIYcg_yx4l-30">
          <mxGeometry relative="1" as="geometry">
            <Array as="points">
              <mxPoint x="1479" y="800" />
              <mxPoint x="1160" y="800" />
              <mxPoint x="1160" y="369" />
            </Array>
          </mxGeometry>
        </mxCell>
        <mxCell id="MXzzhW-mEJsIYcg_yx4l-52" value="&lt;span style=&quot;text-align: left;&quot;&gt;&lt;font style=&quot;vertical-align: inherit;&quot;&gt;&lt;font style=&quot;vertical-align: inherit;&quot;&gt;Notificar Estados&lt;/font&gt;&lt;/font&gt;&lt;/span&gt;" style="text;html=1;align=center;verticalAlign=middle;whiteSpace=wrap;rounded=0;" vertex="1" parent="1">
          <mxGeometry x="1449.37" y="695" width="60" height="30" as="geometry" />
        </mxCell>
        <mxCell id="MXzzhW-mEJsIYcg_yx4l-53" value="&lt;div style=&quot;&quot;&gt;Actualizar BD&lt;/div&gt;" style="text;html=1;align=center;verticalAlign=middle;whiteSpace=wrap;rounded=0;" vertex="1" parent="1">
          <mxGeometry x="1661.87" y="695" width="58.13" height="30" as="geometry" />
        </mxCell>
        <mxCell id="MXzzhW-mEJsIYcg_yx4l-54" value="&lt;font style=&quot;vertical-align: inherit;&quot;&gt;&lt;font style=&quot;vertical-align: inherit;&quot;&gt;Sistema&lt;/font&gt;&lt;/font&gt;" style="text;html=1;align=center;verticalAlign=middle;whiteSpace=wrap;rounded=0;" vertex="1" parent="1">
          <mxGeometry x="1230" y="693.75" width="60" height="30" as="geometry" />
        </mxCell>
        <mxCell id="MXzzhW-mEJsIYcg_yx4l-56" value="&lt;span style=&quot;color: rgb(0, 0, 0); font-family: Helvetica; font-size: 12px; font-style: normal; font-variant-ligatures: normal; font-variant-caps: normal; font-weight: 400; letter-spacing: normal; orphans: 2; text-align: left; text-indent: 0px; text-transform: none; widows: 2; word-spacing: 0px; -webkit-text-stroke-width: 0px; white-space: normal; background-color: rgb(236, 236, 236); text-decoration-thickness: initial; text-decoration-style: initial; text-decoration-color: initial; float: none; display: inline !important;&quot;&gt;&lt;font style=&quot;vertical-align: inherit;&quot;&gt;&lt;font style=&quot;vertical-align: inherit;&quot;&gt;{1d = 8d}&lt;/font&gt;&lt;/font&gt;&lt;/span&gt;" style="text;whiteSpace=wrap;html=1;" vertex="1" parent="1">
          <mxGeometry x="1880" y="307.5" width="60" height="40" as="geometry" />
        </mxCell>
        <mxCell id="MXzzhW-mEJsIYcg_yx4l-57" value="" style="shape=partialRectangle;whiteSpace=wrap;html=1;top=0;bottom=0;fillColor=none;rotation=90;" vertex="1" parent="1">
          <mxGeometry x="1646.88" y="418.76" width="65" height="120" as="geometry" />
        </mxCell>
        <mxCell id="MXzzhW-mEJsIYcg_yx4l-58" value="" style="endArrow=none;html=1;rounded=0;exitX=1;exitY=0;exitDx=0;exitDy=0;" edge="1" parent="1" source="MXzzhW-mEJsIYcg_yx4l-57">
          <mxGeometry width="50" height="50" relative="1" as="geometry">
            <mxPoint x="1783.13" y="485.01" as="sourcePoint" />
            <mxPoint x="1773" y="475" as="targetPoint" />
          </mxGeometry>
        </mxCell>
        <mxCell id="MXzzhW-mEJsIYcg_yx4l-59" value="" style="endArrow=none;html=1;rounded=0;exitX=0;exitY=0;exitDx=0;exitDy=0;" edge="1" parent="1" source="MXzzhW-mEJsIYcg_yx4l-57">
          <mxGeometry width="50" height="50" relative="1" as="geometry">
            <mxPoint x="1783.13" y="437.01" as="sourcePoint" />
            <mxPoint x="1773.13" y="475.01" as="targetPoint" />
          </mxGeometry>
        </mxCell>
        <mxCell id="MXzzhW-mEJsIYcg_yx4l-60" value="" style="endArrow=none;html=1;rounded=0;entryX=1;entryY=1;entryDx=0;entryDy=0;" edge="1" parent="1" target="MXzzhW-mEJsIYcg_yx4l-57">
          <mxGeometry width="50" height="50" relative="1" as="geometry">
            <mxPoint x="1586.88" y="478.76" as="sourcePoint" />
            <mxPoint x="1610.13" y="507.01" as="targetPoint" />
          </mxGeometry>
        </mxCell>
        <mxCell id="MXzzhW-mEJsIYcg_yx4l-61" value="" style="endArrow=none;html=1;rounded=0;entryX=0;entryY=1;entryDx=0;entryDy=0;" edge="1" parent="1" target="MXzzhW-mEJsIYcg_yx4l-57">
          <mxGeometry width="50" height="50" relative="1" as="geometry">
            <mxPoint x="1586.88" y="478.76" as="sourcePoint" />
            <mxPoint x="1610.13" y="448.76" as="targetPoint" />
          </mxGeometry>
        </mxCell>
        <mxCell id="MXzzhW-mEJsIYcg_yx4l-109" style="edgeStyle=orthogonalEdgeStyle;rounded=0;orthogonalLoop=1;jettySize=auto;html=1;entryX=0;entryY=0.5;entryDx=0;entryDy=0;exitX=1.023;exitY=0.454;exitDx=0;exitDy=0;exitPerimeter=0;" edge="1" parent="1" source="MXzzhW-mEJsIYcg_yx4l-57" target="MXzzhW-mEJsIYcg_yx4l-79">
          <mxGeometry relative="1" as="geometry">
            <Array as="points">
              <mxPoint x="1686" y="513" />
              <mxPoint x="1686" y="530" />
              <mxPoint x="1469" y="530" />
            </Array>
          </mxGeometry>
        </mxCell>
        <mxCell id="MXzzhW-mEJsIYcg_yx4l-62" value="&lt;div style=&quot;&quot;&gt;&lt;span style=&quot;background-color: transparent; color: light-dark(rgb(0, 0, 0), rgb(255, 255, 255));&quot;&gt;&lt;font style=&quot;vertical-align: inherit;&quot;&gt;&lt;font style=&quot;vertical-align: inherit;&quot;&gt;&lt;font style=&quot;vertical-align: inherit;&quot;&gt;&lt;font style=&quot;vertical-align: inherit;&quot;&gt;Crear Evento&lt;/font&gt;&lt;/font&gt;&lt;/font&gt;&lt;/font&gt;&lt;/span&gt;&lt;/div&gt;" style="text;html=1;align=center;verticalAlign=middle;whiteSpace=wrap;rounded=0;" vertex="1" parent="1">
          <mxGeometry x="1642.97" y="463.76" width="85" height="30" as="geometry" />
        </mxCell>
        <mxCell id="MXzzhW-mEJsIYcg_yx4l-63" value="" style="endArrow=classic;html=1;rounded=0;" edge="1" parent="1">
          <mxGeometry width="50" height="50" relative="1" as="geometry">
            <mxPoint x="1560" y="476.28999999999996" as="sourcePoint" />
            <mxPoint x="1590" y="476.70000000000005" as="targetPoint" />
          </mxGeometry>
        </mxCell>
        <mxCell id="MXzzhW-mEJsIYcg_yx4l-64" value="{&gt;1h}" style="text;whiteSpace=wrap;" vertex="1" parent="1">
          <mxGeometry x="1650.93" y="418.76" width="80" height="40" as="geometry" />
        </mxCell>
        <mxCell id="MXzzhW-mEJsIYcg_yx4l-68" value="" style="shape=partialRectangle;whiteSpace=wrap;html=1;top=0;bottom=0;fillColor=none;rotation=90;" vertex="1" parent="1">
          <mxGeometry x="1856.88" y="416.88" width="65" height="120" as="geometry" />
        </mxCell>
        <mxCell id="MXzzhW-mEJsIYcg_yx4l-69" value="" style="endArrow=none;html=1;rounded=0;exitX=1;exitY=0;exitDx=0;exitDy=0;" edge="1" parent="1" source="MXzzhW-mEJsIYcg_yx4l-68">
          <mxGeometry width="50" height="50" relative="1" as="geometry">
            <mxPoint x="1993.13" y="483.13" as="sourcePoint" />
            <mxPoint x="1983" y="473.12" as="targetPoint" />
          </mxGeometry>
        </mxCell>
        <mxCell id="MXzzhW-mEJsIYcg_yx4l-70" value="" style="endArrow=none;html=1;rounded=0;exitX=0;exitY=0;exitDx=0;exitDy=0;" edge="1" parent="1" source="MXzzhW-mEJsIYcg_yx4l-68">
          <mxGeometry width="50" height="50" relative="1" as="geometry">
            <mxPoint x="1993.13" y="435.13" as="sourcePoint" />
            <mxPoint x="1983.13" y="473.13" as="targetPoint" />
          </mxGeometry>
        </mxCell>
        <mxCell id="MXzzhW-mEJsIYcg_yx4l-71" value="" style="endArrow=none;html=1;rounded=0;entryX=1;entryY=1;entryDx=0;entryDy=0;" edge="1" parent="1" target="MXzzhW-mEJsIYcg_yx4l-68">
          <mxGeometry width="50" height="50" relative="1" as="geometry">
            <mxPoint x="1796.88" y="476.88" as="sourcePoint" />
            <mxPoint x="1820.13" y="505.13" as="targetPoint" />
          </mxGeometry>
        </mxCell>
        <mxCell id="MXzzhW-mEJsIYcg_yx4l-72" value="" style="endArrow=none;html=1;rounded=0;entryX=0;entryY=1;entryDx=0;entryDy=0;" edge="1" parent="1" target="MXzzhW-mEJsIYcg_yx4l-68">
          <mxGeometry width="50" height="50" relative="1" as="geometry">
            <mxPoint x="1796.88" y="476.88" as="sourcePoint" />
            <mxPoint x="1820.13" y="446.88" as="targetPoint" />
          </mxGeometry>
        </mxCell>
        <mxCell id="MXzzhW-mEJsIYcg_yx4l-73" value="&lt;div style=&quot;&quot;&gt;&lt;span style=&quot;background-color: transparent; color: light-dark(rgb(0, 0, 0), rgb(255, 255, 255));&quot;&gt;&lt;font style=&quot;vertical-align: inherit;&quot;&gt;&lt;font style=&quot;vertical-align: inherit;&quot;&gt;&lt;font style=&quot;vertical-align: inherit;&quot;&gt;&lt;font style=&quot;vertical-align: inherit;&quot;&gt;Procesar Cancelacion&lt;/font&gt;&lt;/font&gt;&lt;/font&gt;&lt;/font&gt;&lt;/span&gt;&lt;/div&gt;" style="text;html=1;align=center;verticalAlign=middle;whiteSpace=wrap;rounded=0;" vertex="1" parent="1">
          <mxGeometry x="1852.97" y="461.88" width="85" height="30" as="geometry" />
        </mxCell>
        <mxCell id="MXzzhW-mEJsIYcg_yx4l-74" value="" style="endArrow=classic;html=1;rounded=0;" edge="1" parent="1">
          <mxGeometry width="50" height="50" relative="1" as="geometry">
            <mxPoint x="1770" y="474.40999999999997" as="sourcePoint" />
            <mxPoint x="1800" y="474.82000000000005" as="targetPoint" />
          </mxGeometry>
        </mxCell>
        <mxCell id="MXzzhW-mEJsIYcg_yx4l-75" value="{1d}" style="text;whiteSpace=wrap;" vertex="1" parent="1">
          <mxGeometry x="1880" y="416.88" width="80" height="40" as="geometry" />
        </mxCell>
        <mxCell id="MXzzhW-mEJsIYcg_yx4l-76" value="&lt;font style=&quot;vertical-align: inherit;&quot;&gt;&lt;font style=&quot;vertical-align: inherit;&quot;&gt;Idle&lt;/font&gt;&lt;/font&gt;" style="text;html=1;align=center;verticalAlign=middle;whiteSpace=wrap;rounded=0;" vertex="1" parent="1">
          <mxGeometry x="1310" y="575" width="60" height="30" as="geometry" />
        </mxCell>
        <mxCell id="MXzzhW-mEJsIYcg_yx4l-78" value="{1d=4d}" style="text;whiteSpace=wrap;" vertex="1" parent="1">
          <mxGeometry x="1446.8700000000001" y="528.12" width="80" height="40" as="geometry" />
        </mxCell>
        <mxCell id="MXzzhW-mEJsIYcg_yx4l-79" value="" style="shape=partialRectangle;whiteSpace=wrap;html=1;top=0;bottom=0;fillColor=none;rotation=90;" vertex="1" parent="1">
          <mxGeometry x="1436.88" y="530" width="65" height="120" as="geometry" />
        </mxCell>
        <mxCell id="MXzzhW-mEJsIYcg_yx4l-80" value="" style="endArrow=none;html=1;rounded=0;exitX=1;exitY=0;exitDx=0;exitDy=0;" edge="1" parent="1" source="MXzzhW-mEJsIYcg_yx4l-79">
          <mxGeometry width="50" height="50" relative="1" as="geometry">
            <mxPoint x="1573.13" y="596.25" as="sourcePoint" />
            <mxPoint x="1563.13" y="586.25" as="targetPoint" />
          </mxGeometry>
        </mxCell>
        <mxCell id="MXzzhW-mEJsIYcg_yx4l-81" value="" style="endArrow=none;html=1;rounded=0;exitX=0;exitY=0;exitDx=0;exitDy=0;" edge="1" parent="1" source="MXzzhW-mEJsIYcg_yx4l-79">
          <mxGeometry width="50" height="50" relative="1" as="geometry">
            <mxPoint x="1573.13" y="548.25" as="sourcePoint" />
            <mxPoint x="1563.13" y="586.25" as="targetPoint" />
          </mxGeometry>
        </mxCell>
        <mxCell id="MXzzhW-mEJsIYcg_yx4l-82" value="" style="endArrow=none;html=1;rounded=0;entryX=1;entryY=1;entryDx=0;entryDy=0;" edge="1" parent="1" target="MXzzhW-mEJsIYcg_yx4l-79">
          <mxGeometry width="50" height="50" relative="1" as="geometry">
            <mxPoint x="1376.88" y="590" as="sourcePoint" />
            <mxPoint x="1400.13" y="618.25" as="targetPoint" />
          </mxGeometry>
        </mxCell>
        <mxCell id="MXzzhW-mEJsIYcg_yx4l-83" value="" style="endArrow=none;html=1;rounded=0;entryX=0;entryY=1;entryDx=0;entryDy=0;" edge="1" parent="1" target="MXzzhW-mEJsIYcg_yx4l-79">
          <mxGeometry width="50" height="50" relative="1" as="geometry">
            <mxPoint x="1376.88" y="590" as="sourcePoint" />
            <mxPoint x="1400.13" y="560" as="targetPoint" />
          </mxGeometry>
        </mxCell>
        <mxCell id="MXzzhW-mEJsIYcg_yx4l-104" style="edgeStyle=orthogonalEdgeStyle;rounded=0;orthogonalLoop=1;jettySize=auto;html=1;entryX=0;entryY=0.5;entryDx=0;entryDy=0;" edge="1" parent="1" target="MXzzhW-mEJsIYcg_yx4l-39">
          <mxGeometry relative="1" as="geometry">
            <mxPoint x="1460" y="620" as="sourcePoint" />
            <Array as="points">
              <mxPoint x="1461" y="620" />
              <mxPoint x="1461" y="640" />
              <mxPoint x="1479" y="640" />
            </Array>
          </mxGeometry>
        </mxCell>
        <mxCell id="MXzzhW-mEJsIYcg_yx4l-84" value="&lt;div style=&quot;&quot;&gt;&lt;span style=&quot;background-color: transparent; color: light-dark(rgb(0, 0, 0), rgb(255, 255, 255));&quot;&gt;&lt;font style=&quot;vertical-align: inherit;&quot;&gt;&lt;font style=&quot;vertical-align: inherit;&quot;&gt;&lt;font style=&quot;vertical-align: inherit;&quot;&gt;&lt;font style=&quot;vertical-align: inherit;&quot;&gt;En Planeacion&lt;/font&gt;&lt;/font&gt;&lt;/font&gt;&lt;/font&gt;&lt;/span&gt;&lt;/div&gt;" style="text;html=1;align=center;verticalAlign=middle;whiteSpace=wrap;rounded=0;" vertex="1" parent="1">
          <mxGeometry x="1416.88" y="575" width="85" height="30" as="geometry" />
        </mxCell>
        <mxCell id="MXzzhW-mEJsIYcg_yx4l-85" value="" style="endArrow=classic;html=1;rounded=0;" edge="1" parent="1">
          <mxGeometry width="50" height="50" relative="1" as="geometry">
            <mxPoint x="1350" y="587.53" as="sourcePoint" />
            <mxPoint x="1380" y="587.94" as="targetPoint" />
          </mxGeometry>
        </mxCell>
        <mxCell id="MXzzhW-mEJsIYcg_yx4l-86" value="&lt;font style=&quot;vertical-align: inherit;&quot;&gt;&lt;font style=&quot;vertical-align: inherit;&quot;&gt;Estados Evento&lt;/font&gt;&lt;/font&gt;" style="text;html=1;align=center;verticalAlign=middle;whiteSpace=wrap;rounded=0;" vertex="1" parent="1">
          <mxGeometry x="1210" y="573.12" width="100" height="30" as="geometry" />
        </mxCell>
        <mxCell id="MXzzhW-mEJsIYcg_yx4l-87" value="" style="shape=partialRectangle;whiteSpace=wrap;html=1;top=0;bottom=0;fillColor=none;rotation=90;" vertex="1" parent="1">
          <mxGeometry x="1646.88" y="530" width="65" height="120" as="geometry" />
        </mxCell>
        <mxCell id="MXzzhW-mEJsIYcg_yx4l-88" value="" style="endArrow=none;html=1;rounded=0;exitX=1;exitY=0;exitDx=0;exitDy=0;" edge="1" parent="1" source="MXzzhW-mEJsIYcg_yx4l-87">
          <mxGeometry width="50" height="50" relative="1" as="geometry">
            <mxPoint x="1783.13" y="596.25" as="sourcePoint" />
            <mxPoint x="1773" y="586.24" as="targetPoint" />
          </mxGeometry>
        </mxCell>
        <mxCell id="MXzzhW-mEJsIYcg_yx4l-89" value="" style="endArrow=none;html=1;rounded=0;exitX=0;exitY=0;exitDx=0;exitDy=0;" edge="1" parent="1" source="MXzzhW-mEJsIYcg_yx4l-87">
          <mxGeometry width="50" height="50" relative="1" as="geometry">
            <mxPoint x="1783.13" y="548.25" as="sourcePoint" />
            <mxPoint x="1773.13" y="586.25" as="targetPoint" />
          </mxGeometry>
        </mxCell>
        <mxCell id="MXzzhW-mEJsIYcg_yx4l-90" value="" style="endArrow=none;html=1;rounded=0;entryX=1;entryY=1;entryDx=0;entryDy=0;" edge="1" parent="1" target="MXzzhW-mEJsIYcg_yx4l-87">
          <mxGeometry width="50" height="50" relative="1" as="geometry">
            <mxPoint x="1586.88" y="590" as="sourcePoint" />
            <mxPoint x="1610.13" y="618.25" as="targetPoint" />
          </mxGeometry>
        </mxCell>
        <mxCell id="MXzzhW-mEJsIYcg_yx4l-91" value="" style="endArrow=none;html=1;rounded=0;entryX=0;entryY=1;entryDx=0;entryDy=0;" edge="1" parent="1" target="MXzzhW-mEJsIYcg_yx4l-87">
          <mxGeometry width="50" height="50" relative="1" as="geometry">
            <mxPoint x="1586.88" y="590" as="sourcePoint" />
            <mxPoint x="1610.13" y="560" as="targetPoint" />
          </mxGeometry>
        </mxCell>
        <mxCell id="MXzzhW-mEJsIYcg_yx4l-105" style="edgeStyle=orthogonalEdgeStyle;rounded=0;orthogonalLoop=1;jettySize=auto;html=1;entryX=0;entryY=0.5;entryDx=0;entryDy=0;exitX=1.021;exitY=0.454;exitDx=0;exitDy=0;exitPerimeter=0;" edge="1" parent="1" source="MXzzhW-mEJsIYcg_yx4l-87" target="MXzzhW-mEJsIYcg_yx4l-39">
          <mxGeometry relative="1" as="geometry">
            <Array as="points">
              <mxPoint x="1686" y="624" />
              <mxPoint x="1686" y="640" />
              <mxPoint x="1479" y="640" />
            </Array>
          </mxGeometry>
        </mxCell>
        <mxCell id="MXzzhW-mEJsIYcg_yx4l-92" value="&lt;div style=&quot;&quot;&gt;&lt;span style=&quot;background-color: transparent; color: light-dark(rgb(0, 0, 0), rgb(255, 255, 255));&quot;&gt;&lt;font style=&quot;vertical-align: inherit;&quot;&gt;&lt;font style=&quot;vertical-align: inherit;&quot;&gt;&lt;font style=&quot;vertical-align: inherit;&quot;&gt;&lt;font style=&quot;vertical-align: inherit;&quot;&gt;En ejecucion&lt;/font&gt;&lt;/font&gt;&lt;/font&gt;&lt;/font&gt;&lt;/span&gt;&lt;/div&gt;" style="text;html=1;align=center;verticalAlign=middle;whiteSpace=wrap;rounded=0;" vertex="1" parent="1">
          <mxGeometry x="1642.9700000000003" y="575" width="85" height="30" as="geometry" />
        </mxCell>
        <mxCell id="MXzzhW-mEJsIYcg_yx4l-93" value="" style="endArrow=classic;html=1;rounded=0;" edge="1" parent="1">
          <mxGeometry width="50" height="50" relative="1" as="geometry">
            <mxPoint x="1560" y="587.53" as="sourcePoint" />
            <mxPoint x="1590" y="587.94" as="targetPoint" />
          </mxGeometry>
        </mxCell>
        <mxCell id="MXzzhW-mEJsIYcg_yx4l-94" value="{4d=11d}" style="text;whiteSpace=wrap;" vertex="1" parent="1">
          <mxGeometry x="1656.8700000000003" y="530" width="80" height="40" as="geometry" />
        </mxCell>
        <mxCell id="MXzzhW-mEJsIYcg_yx4l-95" value="" style="shape=partialRectangle;whiteSpace=wrap;html=1;top=0;bottom=0;fillColor=none;rotation=90;" vertex="1" parent="1">
          <mxGeometry x="1856.88" y="528.12" width="65" height="120" as="geometry" />
        </mxCell>
        <mxCell id="MXzzhW-mEJsIYcg_yx4l-96" value="" style="endArrow=none;html=1;rounded=0;exitX=1;exitY=0;exitDx=0;exitDy=0;" edge="1" parent="1" source="MXzzhW-mEJsIYcg_yx4l-95">
          <mxGeometry width="50" height="50" relative="1" as="geometry">
            <mxPoint x="1993.13" y="594.37" as="sourcePoint" />
            <mxPoint x="1983" y="584.36" as="targetPoint" />
          </mxGeometry>
        </mxCell>
        <mxCell id="MXzzhW-mEJsIYcg_yx4l-97" value="" style="endArrow=none;html=1;rounded=0;exitX=0;exitY=0;exitDx=0;exitDy=0;" edge="1" parent="1" source="MXzzhW-mEJsIYcg_yx4l-95">
          <mxGeometry width="50" height="50" relative="1" as="geometry">
            <mxPoint x="1993.13" y="546.37" as="sourcePoint" />
            <mxPoint x="1983.13" y="584.37" as="targetPoint" />
          </mxGeometry>
        </mxCell>
        <mxCell id="MXzzhW-mEJsIYcg_yx4l-98" value="" style="endArrow=none;html=1;rounded=0;entryX=1;entryY=1;entryDx=0;entryDy=0;" edge="1" parent="1" target="MXzzhW-mEJsIYcg_yx4l-95">
          <mxGeometry width="50" height="50" relative="1" as="geometry">
            <mxPoint x="1796.88" y="588.12" as="sourcePoint" />
            <mxPoint x="1820.13" y="616.37" as="targetPoint" />
          </mxGeometry>
        </mxCell>
        <mxCell id="MXzzhW-mEJsIYcg_yx4l-99" value="" style="endArrow=none;html=1;rounded=0;entryX=0;entryY=1;entryDx=0;entryDy=0;" edge="1" parent="1" target="MXzzhW-mEJsIYcg_yx4l-95">
          <mxGeometry width="50" height="50" relative="1" as="geometry">
            <mxPoint x="1796.88" y="588.12" as="sourcePoint" />
            <mxPoint x="1820.13" y="558.12" as="targetPoint" />
          </mxGeometry>
        </mxCell>
        <mxCell id="MXzzhW-mEJsIYcg_yx4l-106" style="edgeStyle=orthogonalEdgeStyle;rounded=0;orthogonalLoop=1;jettySize=auto;html=1;entryX=0;entryY=0.5;entryDx=0;entryDy=0;exitX=1.023;exitY=0.449;exitDx=0;exitDy=0;exitPerimeter=0;" edge="1" parent="1" source="MXzzhW-mEJsIYcg_yx4l-95" target="MXzzhW-mEJsIYcg_yx4l-39">
          <mxGeometry relative="1" as="geometry">
            <Array as="points">
              <mxPoint x="1895" y="640" />
              <mxPoint x="1479" y="640" />
            </Array>
          </mxGeometry>
        </mxCell>
        <mxCell id="MXzzhW-mEJsIYcg_yx4l-100" value="&lt;div style=&quot;&quot;&gt;&lt;span style=&quot;background-color: transparent; color: light-dark(rgb(0, 0, 0), rgb(255, 255, 255));&quot;&gt;&lt;font style=&quot;vertical-align: inherit;&quot;&gt;&lt;font style=&quot;vertical-align: inherit;&quot;&gt;&lt;font style=&quot;vertical-align: inherit;&quot;&gt;&lt;font style=&quot;vertical-align: inherit;&quot;&gt;Finalizado&lt;/font&gt;&lt;/font&gt;&lt;/font&gt;&lt;/font&gt;&lt;/span&gt;&lt;/div&gt;" style="text;html=1;align=center;verticalAlign=middle;whiteSpace=wrap;rounded=0;" vertex="1" parent="1">
          <mxGeometry x="1852.9700000000003" y="573.12" width="85" height="30" as="geometry" />
        </mxCell>
        <mxCell id="MXzzhW-mEJsIYcg_yx4l-101" value="" style="endArrow=classic;html=1;rounded=0;" edge="1" parent="1">
          <mxGeometry width="50" height="50" relative="1" as="geometry">
            <mxPoint x="1770" y="585.65" as="sourcePoint" />
            <mxPoint x="1800" y="586.0600000000001" as="targetPoint" />
          </mxGeometry>
        </mxCell>
        <mxCell id="MXzzhW-mEJsIYcg_yx4l-102" value="{11d=12d}" style="text;whiteSpace=wrap;" vertex="1" parent="1">
          <mxGeometry x="1880" y="528.12" width="80" height="40" as="geometry" />
        </mxCell>
      </root>
    </mxGraphModel>
  </diagram>
</mxfile>
